# xmcd
#
# Track frame offsets: 
#        150
#        17092
#        32077
#        45225
#        59155
#        72707
#        85722
#        100687
#        116900
#
# Disc length: 1757 seconds
#
# Revision: 0
# Processed by: cddbd v1.5.1PL0 Copyright (c) Steve Scherf et al.
# Submitted via: ExactAudioCopy v0.95a4
#
DISCID=7706db09
DTITLE=John Anderson - Mississippi Moon and MOre
DYEAR=1995
DGENRE=Country
TTITLE0=Mississippi Moon (Radio Edit)
TTITLE1=When It Comes To You (Radio Edit)
TTITLE2=Strait Tequila Night
TTITLE3=Seminole Wind (Radio Edit)
TTITLE4=Money In The Bank
TTITLE5=I've Got It Made
TTITLE6=Bend It Until It Breaks (Radio Edit)
TTITLE7=I Wish I Could've Been There
TTITLE8=Let Go Of The Stone
EXTD=
EXTT0=
EXTT1=
EXTT2=
EXTT3=
EXTT4=
EXTT5=
EXTT6=
EXTT7=
EXTT8=
PLAYORDER=
